<svg id="Capa_1" enable-background="new 0 0 512.004 512.004" height="512" viewBox="0 0 512.004 512.004" width="512" xmlns="http://www.w3.org/2000/svg"><g><g><path d="m69.26 328.857c-5.596-2.314-9.258-7.793-9.258-13.857v-45h-15c-24.814 0-45-20.186-45-45v-180c0-24.814 20.186-45 45-45h360c24.814 0 45 20.186 45 45v180c0 24.814-20.186 45-45 45h-263.789l-55.605 55.605c-4.361 4.361-10.894 5.546-16.348 3.252z" fill="#5c7199"/></g><path d="m405.002 0h-180v270h180c24.814 0 45-20.186 45-45v-180c0-24.814-20.186-45-45-45z" fill="#3d3d66"/><g><path d="m426.396 507.605-55.605-55.605h-83.789c-24.814 0-45-20.186-45-45v-60c0-24.814 20.186-45 45-45h180c24.814 0 45 20.186 45 45v60c0 24.814-20.186 45-45 45h-15v45c0 6.064-3.662 11.543-9.258 13.857-5.453 2.294-11.984 1.112-16.348-3.252z" fill="#ecf2ff"/></g><path d="m426.396 507.605c4.365 4.363 10.895 5.546 16.348 3.252 5.596-2.314 9.258-7.793 9.258-13.857v-45h15c24.814 0 45-20.186 45-45v-60c0-24.814-20.186-45-45-45h-90v156.211z" fill="#d9e5ff"/><g id="Chat_3_"><g><path d="m375.002 150h-90c-8.291 0-15-6.709-15-15s6.709-15 15-15h90c8.291 0 15 6.709 15 15s-6.709 15-15 15z" fill="#d9e5ff"/></g><g><path d="m255.002 180h-105c-8.291 0-15-6.709-15-15v-60c0-8.291 6.709-15 15-15h105c24.814 0 45 20.186 45 45s-20.186 45-45 45z" fill="#6cf"/></g><g><circle cx="317.002" cy="377" fill="#4d5e80" r="15"/></g><g><circle cx="377.002" cy="377" fill="#4d5e80" r="15"/></g><g><circle cx="437.002" cy="377" fill="#3d4b66" r="15"/></g></g><path d="m135.002 60c-8.291 0-15 6.709-15 15v45h-30v-15c0-8.291-6.709-15-15-15s-15 6.709-15 15v60c0 8.291 6.709 15 15 15s15-6.709 15-15v-15h30v45c0 8.291 6.709 15 15 15s15-6.709 15-15v-120c0-8.291-6.709-15-15-15z" fill="#d9e5ff"/><path d="m392.002 377c0-8.284-6.716-15-15-15v30c8.284 0 15-6.716 15-15z" fill="#3d4b66"/><path d="m255.002 90h-30v90h30c24.814 0 45-20.186 45-45s-20.186-45-45-45z" fill="#59abff"/></g></svg>