<svg id="Capa_1" enable-background="new 0 0 512 512" height="512" viewBox="0 0 512 512" width="512" xmlns="http://www.w3.org/2000/svg"><g><path d="m376 210-30-22.5v-105h-90l60 422h30c33.137 0 60-26.863 60-60v-174.5c0-23.607-11.115-45.836-30-60z" fill="#61efff"/><path d="m376 444.5v-174.5c0-14.089-6.729-27.547-18-36l-42-31.5v-30l-150-90v105l-30 22.5c-18.885 14.164-30 36.393-30 60v174.5c0 33.137 26.863 60 60 60h150c33.137 0 60-26.863 60-60z" fill="#b2f7ff"/><path d="m226 112.5 60 60h30v-60z" fill="#8b9199"/><path d="m196 112.5h90v60h-90z" fill="#aaacb0"/><path d="m346 7.5-67.5 67.5 67.5 67.5h30v-135z" fill="#aaacb0"/><path d="m136 7.5h210v135h-210z" fill="#c1c2c4"/><path d="m358 234-25.291-18.969-16.709 259.469h30c16.569 0 30-13.431 30-30v-174.5c0-14.164-6.669-27.501-18-36z" fill="#42c3ff"/><path d="m346 444.5v-24.5l-45-67.5 45-67.5v-38.062c0-12.066-4.853-23.521-13.291-31.906l-16.709-12.532c-35.556 26.667-84.444 26.667-120 0 0 0-42 31.5-42 31.5-11.331 8.499-18 21.836-18 36v174.5c0 16.569 13.431 30 30 30h150c16.568 0 30-13.431 30-30z" fill="#42dcff"/><path d="m316 285h30v45l-75 45z" fill="#fff06e"/><path d="m316 285h-150v45l150 45z" fill="#feffad"/><path d="m316 330-67.5 45 67.5 45h30v-90z" fill="#e0fcff"/><path d="m166 330h150v90h-150z" fill="#fff"/><path d="m362.5 228-42-31.5c-2.666-2-6.334-2-9 0-32.678 24.508-78.322 24.508-111 0-2.666-2-6.334-2-9 0l-42 31.5c-13.149 9.862-21 25.563-21 42v45c0 4.142 3.357 7.5 7.5 7.5s7.5-3.358 7.5-7.5v-45c0-11.74 5.607-22.956 15-30l37.621-28.216c17.75 11.936 38.334 18.216 59.879 18.216s42.129-6.28 59.879-18.216l37.621 28.216c9.393 7.044 15 18.26 15 30v174.5c0 12.407-10.094 22.5-22.5 22.5h-180c-12.406 0-22.5-10.093-22.5-22.5v-99.5c0-4.142-3.357-7.5-7.5-7.5s-7.5 3.358-7.5 7.5v99.5c0 20.678 16.822 37.5 37.5 37.5h180c20.678 0 37.5-16.822 37.5-37.5v-174.5c0-16.437-7.851-32.138-21-42z"/><path d="m380.5 204-27-20.25v-33.75h22.5c4.143 0 7.5-3.358 7.5-7.5v-135c0-4.142-3.357-7.5-7.5-7.5h-240c-4.143 0-7.5 3.358-7.5 7.5v135c0 4.142 3.357 7.5 7.5 7.5h22.5v33.75l-27 20.25c-20.663 15.498-33 40.17-33 66v174.5c0 37.22 30.28 67.5 67.5 67.5h180c37.22 0 67.5-30.28 67.5-67.5v-174.5c0-25.83-12.337-50.502-33-66zm-237-189h225v120h-225zm60 135h105v15h-105zm195 294.5c0 28.949-23.552 52.5-52.5 52.5h-180c-28.948 0-52.5-23.551-52.5-52.5v-174.5c0-21.133 10.094-41.32 27-54l30-22.5c1.889-1.417 3-3.639 3-6v-37.5h15v22.5c0 4.142 3.357 7.5 7.5 7.5h120c4.143 0 7.5-3.358 7.5-7.5v-22.5h15v37.5c0 2.361 1.111 4.583 3 6l30 22.5c16.906 12.68 27 32.867 27 54z"/><path d="m346 427.5c4.143 0 7.5-3.358 7.5-7.5v-135c0-4.142-3.357-7.5-7.5-7.5h-180c-4.143 0-7.5 3.358-7.5 7.5v135c0 4.142 3.357 7.5 7.5 7.5zm-172.5-15v-75h165v75zm165-120v30h-165v-30z"/></g></svg>