<svg id="Capa_1" enable-background="new 0 0 512 512" height="512" viewBox="0 0 512 512" width="512" xmlns="http://www.w3.org/2000/svg"><g><path d="m122.197 45.734h267.611v458.761h-267.611z" fill="#eaf6ff"/><path d="m389.812 45.73v20h-237.62v438.77h-30v-458.77z" fill="#d8ecfe"/><path d="m198.657 389.805h114.69v114.69h-114.69z" fill="#8ac9fe"/><path d="m198.652 389.81h30v114.69h-30z" fill="#60b7ff"/><path d="m179.542 351.575h152.92v38.23h-152.92z" fill="#fedba6"/><path d="m179.542 351.58h50v38.23h-50z" fill="#fece85"/><path d="m103.082 7.504h305.841v38.23h-305.841z" fill="#fedba6"/><path d="m103.082 7.5h50v38.23h-50z" fill="#fece85"/><path d="m389.807 160.425h114.69v38.23h-114.69z" fill="#fedba6"/><path d="m389.812 160.42h50v38.23h-50z" fill="#fece85"/><path d="m7.507 160.425h114.69v38.23h-114.69z" fill="#fedba6"/><path d="m7.502 160.42h50v38.23h-50z" fill="#fece85"/><path d="m389.807 198.655h114.69v305.841h-114.69z" fill="#eaf6ff"/><path d="m504.502 198.65v20h-94.69v285.85h-20v-305.85z" fill="#d8ecfe"/><path d="m7.507 198.655h114.69v305.841h-114.69z" fill="#eaf6ff"/><path d="m122.192 198.65v305.85h-20v-285.85h-94.69v-20z" fill="#d8ecfe"/><path d="m313.347 122.195h-38.23v-38.231h-38.23v38.231h-38.23v38.23h38.23v38.23h38.23v-38.23h38.23z" fill="#f07281"/><path d="m428.038 236.885h38.23v76.46h-38.23z" fill="#5f99d7"/><path d="m160.427 236.885h76.46v76.46h-76.46z" fill="#5f99d7"/><path d="m160.422 236.89h30v76.46h-30z" fill="#3c87d0"/><path d="m275.117 236.885h76.46v76.46h-76.46z" fill="#5f99d7"/><path d="m275.112 236.89h30v76.46h-30z" fill="#3c87d0"/><g fill="#5f99d7"><path d="m45.737 236.885h38.23v76.46h-38.23z"/><path d="m45.737 351.575h38.23v76.46h-38.23z"/><path d="m428.038 351.575h38.23v76.46h-38.23z"/></g><g><path d="m198.657 167.925h30.73v30.73c0 4.142 3.358 7.5 7.5 7.5h38.23c4.142 0 7.5-3.358 7.5-7.5v-30.73h30.73c4.142 0 7.5-3.358 7.5-7.5v-38.23c0-4.142-3.358-7.5-7.5-7.5h-30.73v-30.73c0-4.142-3.358-7.5-7.5-7.5h-38.23c-4.142 0-7.5 3.358-7.5 7.5v30.73h-30.73c-4.142 0-7.5 3.358-7.5 7.5v38.23c0 4.142 3.358 7.5 7.5 7.5zm7.5-38.23h30.73c4.142 0 7.5-3.358 7.5-7.5v-30.73h23.23v30.73c0 4.142 3.358 7.5 7.5 7.5h30.73v23.23h-30.73c-4.142 0-7.5 3.358-7.5 7.5v30.73h-23.23v-30.73c0-4.142-3.358-7.5-7.5-7.5h-30.73z"/><path d="m236.887 229.385h-76.46c-4.142 0-7.5 3.358-7.5 7.5v76.46c0 4.142 3.358 7.5 7.5 7.5h76.46c4.142 0 7.5-3.358 7.5-7.5v-76.46c0-4.142-3.358-7.5-7.5-7.5zm-7.5 76.46h-61.46v-61.46h61.46z"/><path d="m351.577 229.385h-76.46c-4.142 0-7.5 3.358-7.5 7.5v76.46c0 4.142 3.358 7.5 7.5 7.5h76.46c4.142 0 7.5-3.358 7.5-7.5v-76.46c0-4.142-3.358-7.5-7.5-7.5zm-7.5 76.46h-61.46v-61.46h61.46z"/><path d="m428.037 320.845h38.23c4.142 0 7.5-3.358 7.5-7.5v-76.46c0-4.142-3.358-7.5-7.5-7.5h-38.23c-4.142 0-7.5 3.358-7.5 7.5v76.46c0 4.142 3.358 7.5 7.5 7.5zm7.5-76.46h23.23v61.46h-23.23z"/><path d="m428.037 435.536h38.23c4.142 0 7.5-3.358 7.5-7.5v-76.46c0-4.142-3.358-7.5-7.5-7.5h-38.23c-4.142 0-7.5 3.358-7.5 7.5v76.46c0 4.142 3.358 7.5 7.5 7.5zm7.5-76.461h23.23v61.46h-23.23z"/><path d="m504.498 152.925h-107.186v-99.695h11.61c4.142 0 7.5-3.358 7.5-7.5v-38.23c0-4.142-3.358-7.5-7.5-7.5h-305.84c-4.142 0-7.5 3.358-7.5 7.5v38.23c0 4.142 3.358 7.5 7.5 7.5h11.61v99.695h-107.185c-4.142 0-7.5 3.358-7.5 7.5l-.005 344.075c0 4.142 3.358 7.5 7.5 7.5l496.996-.004c4.142 0 7.5-3.358 7.5-7.5v-344.071c0-4.142-3.358-7.5-7.5-7.5zm-7.5 15v23.23h-99.686v-23.23zm-481.991 0h99.686v23.225h-99.686zm290.84 329.071h-42.345v-44.986c0-4.142-3.358-7.5-7.5-7.5s-7.5 3.358-7.5 7.5v44.986h-42.345v-99.69h42.345v22.025c0 4.142 3.358 7.5 7.5 7.5s7.5-3.358 7.5-7.5v-22.025h42.345zm-118.805-114.691v-23.23h137.92v23.23zm133.805 15h11.615c4.142 0 7.5-3.358 7.5-7.5v-38.23c0-4.142-3.358-7.5-7.5-7.5h-152.92c-4.142 0-7.5 3.358-7.5 7.5v38.23c0 4.142 3.358 7.5 7.5 7.5h11.615v99.695h-61.465v-205.55c0-4.142-3.358-7.5-7.5-7.5s-7.5 3.358-7.5 7.5v205.55h-99.69v-290.845h99.69v52.615c0 4.142 3.358 7.5 7.5 7.5s7.5-3.358 7.5-7.5v-205.54h186.43c4.142 0 7.5-3.358 7.5-7.5s-3.358-7.5-7.5-7.5h-205.54v-23.23h290.84v23.23h-52.62c-4.142 0-7.5 3.358-7.5 7.5s3.358 7.5 7.5 7.5h33.51l-.005 443.77h-61.46zm176.151 99.691h-99.686v-290.841h99.686z"/><path d="m83.967 229.385h-38.23c-4.142 0-7.5 3.358-7.5 7.5v76.46c0 4.142 3.358 7.5 7.5 7.5h38.23c4.142 0 7.5-3.358 7.5-7.5v-76.46c0-4.142-3.358-7.5-7.5-7.5zm-7.5 76.46h-23.23v-61.46h23.23z"/><path d="m83.967 344.075h-38.23c-4.142 0-7.5 3.358-7.5 7.5v76.46c0 4.142 3.358 7.5 7.5 7.5h38.23c4.142 0 7.5-3.358 7.5-7.5v-76.46c0-4.142-3.358-7.5-7.5-7.5zm-7.5 76.461h-23.23v-61.46h23.23z"/></g></g></svg>