<svg height="512pt" viewBox="0 0 512 512.00075" width="512pt" xmlns="http://www.w3.org/2000/svg"><path d="m389.699219 122.300781c11.710937 11.71875 11.710937 30.71875 0 42.429688l-21.21875 21.210937-42.421875-42.421875 21.210937-21.21875c11.710938-11.710937 30.710938-11.710937 42.429688 0zm0 0" fill="#e6ffff"/><path d="m219.988281 376.859375-84.847656-84.851563 169.699219-169.707031c10.699218 10.699219 74.175781 74.175781 84.859375 84.859375-170.671875 170.660156 115.277343-115.289062-169.710938 169.699219zm0 0" fill="#8cf2f2"/><path d="m135.140625 292.007812-42.429687 42.421876v.011718l28.277343 28.277344-75.628906 75.640625v.011719l28.28125 28.277344v-.007813l75.640625-75.632813 28.277344 28.28125h.011718l42.417969-42.429687zm0 0" fill="#e6ffff"/><path d="m230.5 206.9375c0 5.523438-4.476562 10-10 10s-10-4.476562-10-10 4.476562-10 10-10 10 4.476562 10 10zm0 0"/><path d="m509.070312 2.929688c-3.902343-3.90625-10.234374-3.90625-14.140624 0l-106.125 106.125c-15.339844-9.035157-35.453126-6.976563-48.609376 6.175781l-14.136718 14.144531-14.148438-14.144531c-1.875-1.875-4.417968-2.929688-7.070312-2.929688s-5.195313 1.054688-7.070313 2.929688l-52.667969 52.667969c-3.90625 3.902343-3.90625 10.234374 0 14.140624s10.234376 3.90625 14.140626 0l45.597656-45.597656 14.148437 14.148438s0 0 .003907.003906c0 0 .003906 0 .003906.003906l56.5625 56.5625-28.285156 28.285156-35.363282-35.355468c-3.90625-3.90625-10.234375-3.90625-14.140625 0s-3.90625 10.238281 0 14.140625l35.363281 35.355469-28.285156 28.285156-35.355468-35.363282c-3.902344-3.902343-10.234376-3.902343-14.144532 0-3.902344 3.90625-3.90625 10.238282 0 14.144532l35.355469 35.363281-28.28125 28.28125-35.359375-35.359375c-3.90625-3.902344-10.234375-3.902344-14.144531 0-3.902344 3.90625-3.902344 10.238281 0 14.144531l35.359375 35.359375-28.28125 28.28125-70.71875-70.71875 46.328125-46.324218c3.902343-3.90625 3.902343-10.238282 0-14.144532-3.90625-3.902344-10.238281-3.902344-14.144531 0l-88.75 88.753906-14.140626-14.140624c-3.902343-3.902344-10.234374-3.90625-14.140624 0s-3.90625 10.238281 0 14.144531l42.421874 42.425781-61.496093 61.503906-28.285157-28.285156c-3.902343-3.902344-10.234374-3.902344-14.140624 0-3.90625 3.90625-3.90625 10.238281 0 14.144531l98.988281 98.988281c1.953125 1.953126 4.511719 2.929688 7.070312 2.929688 2.5625 0 5.121094-.976562 7.074219-2.929688 3.902344-3.902343 3.902344-10.234374 0-14.140624l-28.285156-28.285157 61.5-61.492187 42.429687 42.417968c1.953125 1.953126 4.511719 2.929688 7.070313 2.929688 2.5625 0 5.121094-.976562 7.074218-2.929688 3.902344-3.90625 3.902344-10.238281 0-14.140624l-14.140624-14.140626 205.058593-205.058593c3.90625-3.90625 3.90625-10.238281 0-14.144531l-14.144531-14.144532 14.144531-14.140625c13.152344-13.152343 15.210938-33.265625 6.171875-48.605469l106.128906-106.125c3.90625-3.90625 3.90625-10.238281 0-14.140624zm-373.933593 303.21875 70.714843 70.714843-28.285156 28.289063-70.714844-70.71875zm-61.5 146.355468-14.140625-14.140625 61.496094-61.503906 14.148437 14.148437zm308.996093-294.847656-14.152343 14.144531-28.28125-28.28125 14.140625-14.148437c7.796875-7.796875 20.488281-7.792969 28.285156-.003906 0 0 0 .003906.003906.003906 7.796875 7.804687 7.796875 20.492187.003906 28.285156zm0 0"/></svg>