<svg id="Layer_1" enable-background="new 0 0 512 512" height="512" viewBox="0 0 512 512" width="512" xmlns="http://www.w3.org/2000/svg"><g><g><path d="m368 384h-64c-8.837 0-16-7.163-16-16v-272h96v272c0 8.837-7.163 16-16 16z" fill="#d7e6f0"/></g><g><path d="m288 96v16h32c8.837 0 16 7.163 16 16v240c0 8.837-7.163 16-16 16h48c8.837 0 16-7.163 16-16v-272z" fill="#a5c3dc"/></g><g><g><path d="m288 320v48c0 8.837 7.163 16 16 16h64c8.837 0 16-7.163 16-16v-48z" fill="#fad741"/></g><g><path d="m336 320v48c0 8.837-7.163 16-16 16h48c8.837 0 16-7.163 16-16v-48z" fill="#faa032"/></g></g><g><path d="m400 64h-128c-8.837 0-16 7.163-16 16 0 8.837 7.163 16 16 16h128c8.837 0 16-7.163 16-16 0-8.837-7.163-16-16-16z" fill="#d7e6f0"/></g><g><path d="m384 16h-96c-8.837 0-16 7.163-16 16 0 8.837 7.163 16 16 16h96c8.837 0 16-7.163 16-16 0-8.837-7.163-16-16-16z" fill="#d7e6f0"/></g><g><path d="m304 48h64v16h-64z" fill="#a5c3dc"/></g><g><path d="m352 416h-32c-8.837 0-16-7.163-16-16v-16h64v16c0 8.837-7.163 16-16 16z" fill="#faa032"/></g><g><path d="m336 496c-6.955-10.433-10.667-22.691-10.667-35.23v-44.77h21.333v44.77c.001 12.539-3.711 24.797-10.666 35.23z" fill="#555a6e"/></g><g><path d="m325.333 416v13.333c5.891 0 10.667 4.776 10.667 10.667v56c6.955-10.433 10.667-22.691 10.667-35.229v-44.771z" fill="#463c4b"/></g><g><path d="m312 152c-4.418 0-8-3.582-8-8v-8c0-4.418 3.582-8 8-8s8 3.582 8 8v8c0 4.418-3.582 8-8 8z" fill="#fff"/></g><g><path d="m312 368c-4.418 0-8-3.582-8-8v-184c0-4.418 3.582-8 8-8s8 3.582 8 8v184c0 4.418-3.582 8-8 8z" fill="#fff"/></g><g><path d="m232 224h-112c-4.418 0-8 3.582-8 8v32c0 4.418 3.582 8 8 8h112c4.418 0 8-3.582 8-8v-32c0-4.418-3.582-8-8-8z" fill="#555a6e"/></g><g><path d="m224 288h-96c-17.673 0-32 14.327-32 32v160c0 8.837 7.163 16 16 16h128c8.837 0 16-7.163 16-16v-160c0-17.673-14.327-32-32-32z" fill="#d7e6f0"/></g><g><path d="m224 288h-64c17.673 0 32 14.327 32 32v160c0 8.837-7.163 16-16 16h64c8.837 0 16-7.163 16-16v-160c0-17.673-14.327-32-32-32z" fill="#a5c3dc"/></g><g><path d="m128 272h96v16h-96z" fill="#a5c3dc"/></g><g><path d="m176 272h56c4.418 0 8-3.582 8-8v-32h-56c-4.418 0-8 3.582-8 8z" fill="#463c4b"/></g><g><path d="m129.333 232c-3.682 0-6.667 2.985-6.667 6.667v33.333h13.334v-33.333c0-3.682-2.985-6.667-6.667-6.667z" fill="#463c4b"/></g><g><path d="m156 232c-3.682 0-6.667 2.985-6.667 6.667v33.333h13.333v-33.333c.001-3.682-2.984-6.667-6.666-6.667z" fill="#463c4b"/></g><g><path d="m96 320h96v146.667h-96z" fill="#3fafe1"/></g><g><path d="m192 320h64v146.667h-64z" fill="#2387c3" transform="matrix(-1 0 0 -1 448 786.667)"/></g><g><path d="m120 480c-4.418 0-8-3.582-8-8v-160c0-4.418 3.582-8 8-8s8 3.582 8 8v160c0 4.418-3.582 8-8 8z" fill="#fff"/></g><g><path d="m112 320h16v146.667h-16z" fill="#5ad7ff"/></g><g><path d="m312 368c-4.418 0-8-3.582-8-8v-40h16v40c0 4.418-3.582 8-8 8z" fill="#fff55f"/></g></g></svg>